<mxfile host="app.diagrams.net" agent="Mozilla/5.0 (Windows NT 10.0; Win64; x64) AppleWebKit/537.36 (KHTML, like Gecko) Chrome/141.0.0.0 Safari/537.36" version="28.2.7">
  <diagram name="Página-1" id="2Dgmj0V5SJWhdsEZpJEk">
    <mxGraphModel dx="1464" dy="627" grid="1" gridSize="10" guides="1" tooltips="1" connect="0" arrows="1" fold="1" page="1" pageScale="1" pageWidth="827" pageHeight="1169" math="0" shadow="0">
      <root>
        <mxCell id="0" />
        <mxCell id="1" parent="0" />
        <mxCell id="Vr-AAp9asIDaCI_N4LAO-4" value="" style="edgeStyle=orthogonalEdgeStyle;rounded=0;orthogonalLoop=1;jettySize=auto;html=1;" edge="1" parent="1" source="Vr-AAp9asIDaCI_N4LAO-1" target="Vr-AAp9asIDaCI_N4LAO-2">
          <mxGeometry relative="1" as="geometry" />
        </mxCell>
        <mxCell id="Vr-AAp9asIDaCI_N4LAO-1" value="inicio" style="strokeWidth=2;html=1;shape=mxgraph.flowchart.terminator;whiteSpace=wrap;" vertex="1" parent="1">
          <mxGeometry x="230" y="50" width="110" height="50" as="geometry" />
        </mxCell>
        <mxCell id="Vr-AAp9asIDaCI_N4LAO-6" value="" style="edgeStyle=orthogonalEdgeStyle;rounded=0;orthogonalLoop=1;jettySize=auto;html=1;" edge="1" parent="1" source="Vr-AAp9asIDaCI_N4LAO-2" target="Vr-AAp9asIDaCI_N4LAO-5">
          <mxGeometry relative="1" as="geometry" />
        </mxCell>
        <mxCell id="Vr-AAp9asIDaCI_N4LAO-2" value="inteiro valor1, valor2, soma" style="rounded=1;whiteSpace=wrap;html=1;absoluteArcSize=1;arcSize=14;strokeWidth=2;" vertex="1" parent="1">
          <mxGeometry x="190" y="140" width="190" height="50" as="geometry" />
        </mxCell>
        <mxCell id="Vr-AAp9asIDaCI_N4LAO-8" value="" style="edgeStyle=orthogonalEdgeStyle;rounded=0;orthogonalLoop=1;jettySize=auto;html=1;" edge="1" parent="1" source="Vr-AAp9asIDaCI_N4LAO-5" target="Vr-AAp9asIDaCI_N4LAO-7">
          <mxGeometry relative="1" as="geometry" />
        </mxCell>
        <mxCell id="Vr-AAp9asIDaCI_N4LAO-5" value="valor1 = 13" style="rounded=1;whiteSpace=wrap;html=1;absoluteArcSize=1;arcSize=14;strokeWidth=2;" vertex="1" parent="1">
          <mxGeometry x="190" y="235" width="190" height="50" as="geometry" />
        </mxCell>
        <mxCell id="Vr-AAp9asIDaCI_N4LAO-10" value="" style="edgeStyle=orthogonalEdgeStyle;rounded=0;orthogonalLoop=1;jettySize=auto;html=1;" edge="1" parent="1" source="Vr-AAp9asIDaCI_N4LAO-7" target="Vr-AAp9asIDaCI_N4LAO-9">
          <mxGeometry relative="1" as="geometry" />
        </mxCell>
        <mxCell id="Vr-AAp9asIDaCI_N4LAO-7" value="valor2 = 26" style="rounded=1;whiteSpace=wrap;html=1;absoluteArcSize=1;arcSize=14;strokeWidth=2;" vertex="1" parent="1">
          <mxGeometry x="190" y="330" width="190" height="60" as="geometry" />
        </mxCell>
        <mxCell id="Vr-AAp9asIDaCI_N4LAO-12" value="" style="edgeStyle=orthogonalEdgeStyle;rounded=0;orthogonalLoop=1;jettySize=auto;html=1;" edge="1" parent="1" source="Vr-AAp9asIDaCI_N4LAO-9" target="Vr-AAp9asIDaCI_N4LAO-11">
          <mxGeometry relative="1" as="geometry" />
        </mxCell>
        <mxCell id="Vr-AAp9asIDaCI_N4LAO-9" value="soma = valor1 + valor2" style="rounded=1;whiteSpace=wrap;html=1;absoluteArcSize=1;arcSize=14;strokeWidth=2;" vertex="1" parent="1">
          <mxGeometry x="190" y="430" width="190" height="50" as="geometry" />
        </mxCell>
        <mxCell id="Vr-AAp9asIDaCI_N4LAO-14" value="" style="edgeStyle=orthogonalEdgeStyle;rounded=0;orthogonalLoop=1;jettySize=auto;html=1;" edge="1" parent="1" source="Vr-AAp9asIDaCI_N4LAO-11" target="Vr-AAp9asIDaCI_N4LAO-13">
          <mxGeometry relative="1" as="geometry" />
        </mxCell>
        <mxCell id="Vr-AAp9asIDaCI_N4LAO-11" value="&quot;A soma dos número é &quot;, soma" style="strokeWidth=2;html=1;shape=mxgraph.flowchart.display;whiteSpace=wrap;" vertex="1" parent="1">
          <mxGeometry x="195" y="520" width="180" height="70" as="geometry" />
        </mxCell>
        <mxCell id="Vr-AAp9asIDaCI_N4LAO-13" value="fim" style="strokeWidth=2;html=1;shape=mxgraph.flowchart.terminator;whiteSpace=wrap;" vertex="1" parent="1">
          <mxGeometry x="235" y="630" width="100" height="50" as="geometry" />
        </mxCell>
      </root>
    </mxGraphModel>
  </diagram>
</mxfile>
